# xmcd
#
# Track frame offsets:
#	150
#	11249
#	22151
#	33907
#	45953
#	57221
#	75223
#	92735
#	107821
#	121493
#	130811
#	142655
#	154315
#	169748
#	180998
#	190379
#	199664
#	211686
#	222605
#	232564
#	249353
#
# Disc length: 3463 seconds
#
# Revision: 0
# Processed by: cddbd v1.5.2PL0 Copyright (c) Steve Scherf et al.
# Submitted via: dBpowerAMP V4.0
#
DISCID=0d0d8515
DTITLE=Various Artist - 50 Years Of Easy Listening Country [CD4]
DYEAR=1995
DGENRE=Country
TTITLE0=('Til) I Kissed You - The Everly Brothers
TTITLE1=The Old Lamplighter - The Browns
TTITLE2=All I Have To Do Is Dream - Glen Campbell and Bobbie Gentry
TTITLE3=After The Fire Is Gone - Loretta Lynn and Conway Twitty
TTITLE4=Mama's Don't Let Your Babies Grow Up To Be Cowboys - Walon Jennings and Willie Nelson
TTITLE5=I'll Still Be Loving You - Restless Heart
TTITLE6=Both To Each Other (Friends And Lovers) Eddie Rabbitt and Juice Newton
TTITLE7=My Heart Cries For You - Red Foley and Evelyn Knight With The Alcyone Beasley Singers
TTITLE8=I Forgot More Than You'll Ever Know - The Davis Sisters
TTITLE9=A Bushel And A Peck - Margaret Whiting and Jimmy Wakely
TTITLE10=I'll Never Be Free - Kay Starr and Tennessee Ernie Ford
TTITLE11=San Antonio Rose - Floyd Cramer
TTITLE12=Guitar Boogie - Arthur Guitar Boggie Smith and His Crackerjacks
TTITLE13=Last Date - Floyd Cramer
TTITLE14=Yakety Axe - Chet Atkins
TTITLE15=Dallas - Floyd Cramer
TTITLE16=The Battle Of Kookamongo - Homer and Jethro
TTITLE17=That's My Pa - Sheb Wooley
TTITLE18=I've Got A Tiger By The Tail - Buck Owens
TTITLE19=A Boy Named Sue - Johnny Cash
TTITLE20=When Your Hot, Your Hot - Jerry Reed
EXTD=
EXTT0=
EXTT1=
EXTT2=
EXTT3=
EXTT4=
EXTT5=
EXTT6=
EXTT7=
EXTT8=
EXTT9=
EXTT10=
EXTT11=
EXTT12=
EXTT13=
EXTT14=
EXTT15=
EXTT16=
EXTT17=
EXTT18=
EXTT19=
EXTT20=
PLAYORDER=
